<?xml version="1.0" encoding="UTF-8" standalone="no"?>
<!DOCTYPE svg PUBLIC "-//W3C//DTD SVG 1.1//EN" "http://www.w3.org/Graphics/SVG/1.1/DTD/svg11.dtd">
<svg width="100%" height="100%" viewBox="0 0 250 55" version="1.1" xmlns="http://www.w3.org/2000/svg" xmlns:xlink="http://www.w3.org/1999/xlink" xml:space="preserve" xmlns:serif="http://www.serif.com/" style="fill-rule:evenodd;clip-rule:evenodd;stroke-linejoin:round;stroke-miterlimit:2;">
    <g>
        <g transform="matrix(1.50454,0,0,1.50454,-35.5419,-3.91479)">
            <path d="M35.342,28.358C33.205,28.358 31.241,27.856 29.45,26.853C27.659,25.849 26.24,24.457 25.193,22.677C24.146,20.896 23.623,18.884 23.623,16.639C23.623,14.395 24.146,12.382 25.193,10.602C26.24,8.822 27.659,7.435 29.45,6.442C31.241,5.45 33.205,4.953 35.342,4.953C37.5,4.953 39.469,5.45 41.249,6.442C43.03,7.435 44.438,8.822 45.474,10.602C46.51,12.382 47.028,14.395 47.028,16.639C47.028,18.884 46.51,20.896 45.474,22.677C44.438,24.457 43.025,25.849 41.233,26.853C39.442,27.856 37.478,28.358 35.342,28.358ZM35.342,22.466C36.96,22.466 38.239,21.937 39.178,20.88C40.116,19.823 40.586,18.409 40.586,16.639C40.586,14.827 40.116,13.397 39.178,12.35C38.239,11.303 36.96,10.78 35.342,10.78C33.701,10.78 32.417,11.303 31.489,12.35C30.561,13.397 30.097,14.827 30.097,16.639C30.097,18.431 30.561,19.85 31.489,20.896C32.417,21.943 33.701,22.466 35.342,22.466Z" style="fill-rule:nonzero;"/>
            <path d="M56.221,12.496C56.718,11.654 57.419,10.985 58.326,10.489C59.232,9.992 60.3,9.744 61.53,9.744C62.976,9.744 64.287,10.122 65.463,10.877C66.64,11.632 67.568,12.712 68.247,14.114C68.927,15.517 69.267,17.157 69.267,19.035C69.267,20.912 68.927,22.558 68.247,23.972C67.568,25.385 66.64,26.47 65.463,27.225C64.287,27.98 62.976,28.358 61.53,28.358C60.3,28.358 59.237,28.11 58.342,27.613C57.446,27.117 56.739,26.448 56.221,25.606L56.221,36.807L49.877,36.807L49.877,9.971L56.221,9.971L56.221,12.496ZM62.825,19.035C62.825,17.848 62.507,16.925 61.87,16.267C61.234,15.609 60.451,15.28 59.523,15.28C58.595,15.28 57.813,15.614 57.176,16.283C56.54,16.952 56.221,17.869 56.221,19.035C56.221,20.222 56.54,21.15 57.176,21.819C57.813,22.488 58.595,22.822 59.523,22.822C60.451,22.822 61.234,22.482 61.87,21.803C62.507,21.123 62.825,20.2 62.825,19.035Z" style="fill-rule:nonzero;"/>
            <path d="M89.24,18.841C89.24,19.337 89.208,19.833 89.143,20.33L77.133,20.33C77.198,21.322 77.473,22.062 77.959,22.547C78.445,23.033 79.065,23.276 79.82,23.276C80.878,23.276 81.633,22.801 82.086,21.851L88.852,21.851C88.571,23.103 88.027,24.22 87.217,25.202C86.408,26.184 85.388,26.955 84.158,27.516C82.928,28.077 81.568,28.358 80.079,28.358C78.288,28.358 76.696,27.98 75.304,27.225C73.912,26.47 72.823,25.39 72.035,23.988C71.247,22.585 70.853,20.934 70.853,19.035C70.853,17.136 71.242,15.49 72.019,14.098C72.796,12.706 73.88,11.632 75.272,10.877C76.664,10.122 78.266,9.744 80.079,9.744C81.871,9.744 83.457,10.111 84.838,10.845C86.219,11.579 87.298,12.631 88.075,14.001C88.852,15.371 89.24,16.985 89.24,18.841ZM82.766,17.254C82.766,16.477 82.507,15.868 81.989,15.425C81.471,14.983 80.824,14.762 80.047,14.762C79.27,14.762 78.633,14.972 78.137,15.393C77.641,15.814 77.317,16.434 77.166,17.254L82.766,17.254Z" style="fill-rule:nonzero;"/>
            <path d="M103.711,9.809C105.804,9.809 107.466,10.505 108.696,11.897C109.926,13.289 110.541,15.172 110.541,17.546L110.541,28.131L104.196,28.131L104.196,18.387C104.196,17.351 103.926,16.537 103.387,15.943C102.847,15.35 102.124,15.053 101.218,15.053C100.268,15.053 99.524,15.35 98.984,15.943C98.445,16.537 98.175,17.351 98.175,18.387L98.175,28.131L91.83,28.131L91.83,9.971L98.175,9.971L98.175,12.56C98.736,11.74 99.492,11.077 100.441,10.57C101.391,10.062 102.481,9.809 103.711,9.809Z" style="fill-rule:nonzero;"/>
            <path d="M136.244,5.309L128.378,28.131L120.253,28.131L112.354,5.309L119.152,5.309L124.331,21.786L129.478,5.309L136.244,5.309Z" style="fill-rule:nonzero;"/>
            <path d="M146.668,28.358C144.855,28.358 143.231,27.98 141.796,27.225C140.361,26.47 139.233,25.39 138.413,23.988C137.593,22.585 137.183,20.934 137.183,19.035C137.183,17.157 137.598,15.517 138.429,14.114C139.26,12.712 140.393,11.632 141.828,10.877C143.263,10.122 144.887,9.744 146.7,9.744C148.513,9.744 150.137,10.122 151.572,10.877C153.007,11.632 154.14,12.712 154.971,14.114C155.802,15.517 156.217,17.157 156.217,19.035C156.217,20.912 155.802,22.558 154.971,23.972C154.14,25.385 153.002,26.47 151.556,27.225C150.11,27.98 148.481,28.358 146.668,28.358ZM146.668,22.855C147.553,22.855 148.292,22.526 148.885,21.867C149.479,21.209 149.776,20.265 149.776,19.035C149.776,17.805 149.479,16.866 148.885,16.218C148.292,15.571 147.563,15.247 146.7,15.247C145.837,15.247 145.114,15.571 144.531,16.218C143.949,16.866 143.657,17.805 143.657,19.035C143.657,20.287 143.938,21.236 144.499,21.884C145.06,22.531 145.783,22.855 146.668,22.855Z" style="fill-rule:nonzero;"/>
            <path d="M169.522,22.725L169.522,28.131L166.771,28.131C162.131,28.131 159.811,25.833 159.811,21.236L159.811,15.247L157.577,15.247L157.577,9.971L159.811,9.971L159.811,5.568L166.188,5.568L166.188,9.971L169.49,9.971L169.49,15.247L166.188,15.247L166.188,21.333C166.188,21.83 166.301,22.186 166.528,22.401C166.754,22.617 167.138,22.725 167.677,22.725L169.522,22.725Z" style="fill-rule:nonzero;"/>
            <path d="M189.787,18.841C189.787,19.337 189.755,19.833 189.69,20.33L177.68,20.33C177.745,21.322 178.02,22.062 178.505,22.547C178.991,23.033 179.611,23.276 180.367,23.276C181.424,23.276 182.18,22.801 182.633,21.851L189.398,21.851C189.118,23.103 188.573,24.22 187.764,25.202C186.954,26.184 185.935,26.955 184.705,27.516C183.474,28.077 182.115,28.358 180.626,28.358C178.835,28.358 177.243,27.98 175.851,27.225C174.459,26.47 173.369,25.39 172.581,23.988C171.794,22.585 171.4,20.934 171.4,19.035C171.4,17.136 171.788,15.49 172.565,14.098C173.342,12.706 174.427,11.632 175.819,10.877C177.211,10.122 178.813,9.744 180.626,9.744C182.417,9.744 184.003,10.111 185.384,10.845C186.766,11.579 187.845,12.631 188.622,14.001C189.398,15.371 189.787,16.985 189.787,18.841ZM183.313,17.254C183.313,16.477 183.054,15.868 182.536,15.425C182.018,14.983 181.37,14.762 180.593,14.762C179.816,14.762 179.18,14.972 178.683,15.393C178.187,15.814 177.863,16.434 177.712,17.254L183.313,17.254Z" style="fill-rule:nonzero;"/>
        </g>
        <g transform="matrix(0.64714,0,0,0.64714,-23.5022,-4.0079)">
            <path d="M63.093,36.629L53.149,26.303C53.149,26.303 49.616,22.756 45.499,26.873C41.902,30.47 45.449,33.97 45.449,33.97L62.942,51.463L63.093,51.312L63.243,51.463L100.11,14.596C100.11,14.596 102.315,10.889 98.796,7.86C95.277,4.831 92.016,7.63 92.016,7.63L63.093,36.629Z" style="fill:rgb(45,212,191);"/>
            <path d="M63.093,36.629L53.149,26.303C53.149,26.303 49.616,22.756 45.499,26.873C41.902,30.47 45.449,33.97 45.449,33.97L62.942,51.463L63.093,51.312L63.243,51.463L100.11,14.596C100.11,14.596 102.315,10.889 98.796,7.86C95.277,4.831 92.016,7.63 92.016,7.63L63.093,36.629ZM63.093,50.302L46.103,33.312C46.1,33.31 44.67,31.916 44.826,30.07C44.893,29.277 45.271,28.412 46.155,27.529C47.543,26.14 48.834,25.745 49.906,25.819C51.37,25.92 52.376,26.846 52.482,26.948L63.081,37.954L92.64,8.317C92.904,8.107 95.452,6.205 98.191,8.563C100.807,10.814 99.624,13.514 99.36,14.033L63.093,50.302Z" style="fill:white;"/>
        </g>
    </g>
</svg>
